<?xml version="1.0" encoding="UTF-8" standalone="no"?>
<!DOCTYPE svg PUBLIC "-//W3C//DTD SVG 1.1//EN"
 "http://www.w3.org/Graphics/SVG/1.1/DTD/svg11.dtd">
<!-- Generated by graphviz version 2.40.1 (20161225.0304)
 -->
<!-- Title: %3 Pages: 1 -->
<svg width="884pt" height="395pt"
 viewBox="0.00 0.00 884.12 394.60" xmlns="http://www.w3.org/2000/svg" xmlns:xlink="http://www.w3.org/1999/xlink">
<g id="graph0" class="graph" transform="scale(1 1) rotate(0) translate(4 390.6001)">
<title>%3</title>
<polygon fill="#ffffff" stroke="transparent" points="-4,4 -4,-390.6001 880.1163,-390.6001 880.1163,4 -4,4"/>
<!-- MD -->
<g id="node1" class="node">
<title>MD</title>
<ellipse fill="none" stroke="#000000" cx="463.033" cy="-359.73" rx="48.1667" ry="26.7407"/>
<text text-anchor="middle" x="463.033" y="-363.53" font-family="Times,serif" font-size="14.00" fill="#000000">maratona</text>
<text text-anchor="middle" x="463.033" y="-348.53" font-family="Times,serif" font-size="14.00" fill="#000000">desktop</text>
</g>
<!-- ME -->
<g id="node2" class="node">
<title>ME</title>
<ellipse fill="none" stroke="#ff0000" stroke-dasharray="1,5" cx="112.033" cy="-259.3833" rx="48.1667" ry="26.7407"/>
<text text-anchor="middle" x="112.033" y="-263.1833" font-family="Times,serif" font-size="14.00" fill="#000000">maratona</text>
<text text-anchor="middle" x="112.033" y="-248.1833" font-family="Times,serif" font-size="14.00" fill="#000000">essential</text>
</g>
<!-- MD&#45;&gt;ME -->
<g id="edge9" class="edge">
<title>MD&#45;&gt;ME</title>
<path fill="none" stroke="#ff0000" stroke-dasharray="1,5" d="M415.5963,-355.0544C356.1025,-347.9741 251.8568,-331.5016 169.033,-296.86 162.3477,-294.0638 155.6019,-290.4633 149.2064,-286.6027"/>
<polygon fill="#ff0000" stroke="#ff0000" points="151.0592,-283.6333 140.741,-281.2282 147.3073,-289.5429 151.0592,-283.6333"/>
</g>
<!-- MF -->
<g id="node3" class="node">
<title>MF</title>
<ellipse fill="none" stroke="#000000" cx="226.033" cy="-259.3833" rx="48.1667" ry="26.7407"/>
<text text-anchor="middle" x="226.033" y="-263.1833" font-family="Times,serif" font-size="14.00" fill="#000000">maratona</text>
<text text-anchor="middle" x="226.033" y="-248.1833" font-family="Times,serif" font-size="14.00" fill="#000000">firewall</text>
</g>
<!-- MD&#45;&gt;MF -->
<g id="edge1" class="edge">
<title>MD&#45;&gt;MF</title>
<path fill="none" stroke="#000000" d="M419.6464,-347.8488C382.4189,-336.8929 327.8464,-318.9972 283.033,-296.86 276.8263,-293.7939 270.4823,-290.1742 264.3872,-286.4134"/>
<polygon fill="#000000" stroke="#000000" points="265.9916,-283.2852 255.6803,-280.8506 262.2228,-289.184 265.9916,-283.2852"/>
</g>
<!-- MC -->
<g id="node4" class="node">
<title>MC</title>
<ellipse fill="none" stroke="#000000" cx="340.033" cy="-259.3833" rx="48.1667" ry="26.7407"/>
<text text-anchor="middle" x="340.033" y="-263.1833" font-family="Times,serif" font-size="14.00" fill="#000000">maratona</text>
<text text-anchor="middle" x="340.033" y="-248.1833" font-family="Times,serif" font-size="14.00" fill="#000000">conflitos</text>
</g>
<!-- MD&#45;&gt;MC -->
<g id="edge2" class="edge">
<title>MD&#45;&gt;MC</title>
<path fill="none" stroke="#000000" d="M435.7353,-337.4598C417.9,-322.9093 394.4376,-303.768 375.2078,-288.0799"/>
<polygon fill="#000000" stroke="#000000" points="377.2154,-285.2007 367.2544,-281.5912 372.7904,-290.6247 377.2154,-285.2007"/>
</g>
<!-- MB -->
<g id="node5" class="node">
<title>MB</title>
<ellipse fill="none" stroke="#000000" cx="463.033" cy="-259.3833" rx="56.6372" ry="26.7407"/>
<text text-anchor="middle" x="463.033" y="-263.1833" font-family="Times,serif" font-size="14.00" fill="#000000">maratona</text>
<text text-anchor="middle" x="463.033" y="-248.1833" font-family="Times,serif" font-size="14.00" fill="#000000">background</text>
</g>
<!-- MD&#45;&gt;MB -->
<g id="edge3" class="edge">
<title>MD&#45;&gt;MB</title>
<path fill="none" stroke="#000000" d="M463.033,-332.8389C463.033,-321.7034 463.033,-308.6018 463.033,-296.5701"/>
<polygon fill="#000000" stroke="#000000" points="466.5331,-296.3486 463.033,-286.3486 459.5331,-296.3486 466.5331,-296.3486"/>
</g>
<!-- MU -->
<g id="node6" class="node">
<title>MU</title>
<ellipse fill="none" stroke="#000000" cx="586.033" cy="-259.3833" rx="48.1667" ry="37.4533"/>
<text text-anchor="middle" x="586.033" y="-270.6833" font-family="Times,serif" font-size="14.00" fill="#000000">maratona</text>
<text text-anchor="middle" x="586.033" y="-255.6833" font-family="Times,serif" font-size="14.00" fill="#000000">usuario</text>
<text text-anchor="middle" x="586.033" y="-240.6833" font-family="Times,serif" font-size="14.00" fill="#000000">icpc</text>
</g>
<!-- MD&#45;&gt;MU -->
<g id="edge4" class="edge">
<title>MD&#45;&gt;MU</title>
<path fill="none" stroke="#000000" d="M490.3307,-337.4598C506.2882,-324.4412 526.7504,-307.7476 544.6553,-293.1404"/>
<polygon fill="#000000" stroke="#000000" points="547.1405,-295.6299 552.6765,-286.5965 542.7154,-290.2059 547.1405,-295.6299"/>
</g>
<!-- MS -->
<g id="node7" class="node">
<title>MS</title>
<ellipse fill="none" stroke="#000000" cx="707.033" cy="-259.3833" rx="55.3091" ry="26.7407"/>
<text text-anchor="middle" x="707.033" y="-263.1833" font-family="Times,serif" font-size="14.00" fill="#000000">maratona</text>
<text text-anchor="middle" x="707.033" y="-248.1833" font-family="Times,serif" font-size="14.00" fill="#000000">submission</text>
</g>
<!-- MD&#45;&gt;MS -->
<g id="edge5" class="edge">
<title>MD&#45;&gt;MS</title>
<path fill="none" stroke="#000000" d="M505.77,-347.3708C542.8277,-336.0533 597.5103,-317.897 643.033,-296.86 650.1007,-293.5938 657.4004,-289.7797 664.428,-285.8587"/>
<polygon fill="#000000" stroke="#000000" points="666.2063,-288.8736 673.1463,-280.8681 662.7288,-282.7985 666.2063,-288.8736"/>
</g>
<!-- MDl -->
<g id="node11" class="node">
<title>MDl</title>
<ellipse fill="none" stroke="#0000ff" stroke-dasharray="5,2" cx="828.033" cy="-259.3833" rx="48.1667" ry="37.4533"/>
<text text-anchor="middle" x="828.033" y="-270.6833" font-family="Times,serif" font-size="14.00" fill="#000000">maratona</text>
<text text-anchor="middle" x="828.033" y="-255.6833" font-family="Times,serif" font-size="14.00" fill="#000000">desktop</text>
<text text-anchor="middle" x="828.033" y="-240.6833" font-family="Times,serif" font-size="14.00" fill="#000000">latam</text>
</g>
<!-- MD&#45;&gt;MDl -->
<g id="edge12" class="edge">
<title>MD&#45;&gt;MDl</title>
<path fill="none" stroke="#0000ff" stroke-dasharray="5,2" d="M510.5738,-355.6636C572.5133,-349.1164 683.2572,-333.0934 771.033,-296.86 775.4529,-295.0354 779.8965,-292.8542 784.2463,-290.4742"/>
<polygon fill="#0000ff" stroke="#0000ff" points="786.1342,-293.4249 793.0055,-285.3604 782.6049,-287.3797 786.1342,-293.4249"/>
</g>
<!-- MEd -->
<g id="node8" class="node">
<title>MEd</title>
<ellipse fill="none" stroke="#000000" cx="161.033" cy="-148.43" rx="48.1667" ry="26.7407"/>
<text text-anchor="middle" x="161.033" y="-152.23" font-family="Times,serif" font-size="14.00" fill="#000000">maratona</text>
<text text-anchor="middle" x="161.033" y="-137.23" font-family="Times,serif" font-size="14.00" fill="#000000">editores</text>
</g>
<!-- ME&#45;&gt;MEd -->
<g id="edge6" class="edge">
<title>ME&#45;&gt;MEd</title>
<path fill="none" stroke="#000000" d="M123.6453,-233.0889C130.1138,-218.442 138.2578,-200.0011 145.2923,-184.0724"/>
<polygon fill="#000000" stroke="#000000" points="148.6658,-185.0973 149.504,-174.5356 142.2625,-182.2693 148.6658,-185.0973"/>
</g>
<!-- ML -->
<g id="node9" class="node">
<title>ML</title>
<ellipse fill="none" stroke="#ff0000" stroke-dasharray="1,5" cx="53.033" cy="-37.4767" rx="53.066" ry="26.7407"/>
<text text-anchor="middle" x="53.033" y="-41.2767" font-family="Times,serif" font-size="14.00" fill="#000000">maratona</text>
<text text-anchor="middle" x="53.033" y="-26.2767" font-family="Times,serif" font-size="14.00" fill="#000000">linguagens</text>
</g>
<!-- ME&#45;&gt;ML -->
<g id="edge7" class="edge">
<title>ME&#45;&gt;ML</title>
<path fill="none" stroke="#000000" d="M104.9162,-232.6162C94.3957,-193.0469 74.6613,-118.8234 62.7964,-74.1979"/>
<polygon fill="#000000" stroke="#000000" points="66.1271,-73.1036 60.175,-64.3387 59.3621,-74.9023 66.1271,-73.1036"/>
</g>
<!-- MLd -->
<g id="node10" class="node">
<title>MLd</title>
<ellipse fill="none" stroke="#ff0000" stroke-dasharray="1,5" cx="433.033" cy="-148.43" rx="53.066" ry="37.4533"/>
<text text-anchor="middle" x="433.033" y="-159.73" font-family="Times,serif" font-size="14.00" fill="#000000">maratona</text>
<text text-anchor="middle" x="433.033" y="-144.73" font-family="Times,serif" font-size="14.00" fill="#000000">linguagens</text>
<text text-anchor="middle" x="433.033" y="-129.73" font-family="Times,serif" font-size="14.00" fill="#000000">doc</text>
</g>
<!-- ME&#45;&gt;MLd -->
<g id="edge8" class="edge">
<title>ME&#45;&gt;MLd</title>
<path fill="none" stroke="#000000" d="M141.1988,-237.7181C149.8444,-231.9942 159.5448,-226.2184 169.033,-221.9066 235.3943,-191.7498 316.885,-171.3714 371.6254,-159.8688"/>
<polygon fill="#000000" stroke="#000000" points="372.4403,-163.2744 381.5256,-157.8239 371.0243,-156.4191 372.4403,-163.2744"/>
</g>
<!-- MU&#45;&gt;MLd -->
<g id="edge11" class="edge">
<title>MU&#45;&gt;MLd</title>
<path fill="none" stroke="#ff0000" stroke-dasharray="1,5" d="M550.5472,-233.6495C529.0835,-218.0843 501.5041,-198.0842 478.458,-181.3715"/>
<polygon fill="#ff0000" stroke="#ff0000" points="480.3422,-178.4145 470.1921,-175.3772 476.2328,-184.0813 480.3422,-178.4145"/>
</g>
<!-- MEd&#45;&gt;ML -->
<g id="edge10" class="edge">
<title>MEd&#45;&gt;ML</title>
<path fill="none" stroke="#ff0000" stroke-dasharray="1,5" d="M137.8643,-124.6277C122.0283,-108.3587 100.8723,-86.6242 83.6495,-68.9304"/>
<polygon fill="#ff0000" stroke="#ff0000" points="86.0192,-66.347 76.5361,-61.6224 81.0031,-71.2295 86.0192,-66.347"/>
</g>
<!-- MECu -->
<g id="node12" class="node">
<title>MECu</title>
<ellipse fill="none" stroke="#0000ff" stroke-dasharray="5,2" cx="172.033" cy="-37.4767" rx="48.1667" ry="37.4533"/>
<text text-anchor="middle" x="172.033" y="-48.7767" font-family="Times,serif" font-size="14.00" fill="#000000">maratona</text>
<text text-anchor="middle" x="172.033" y="-33.7767" font-family="Times,serif" font-size="14.00" fill="#000000">editores</text>
<text text-anchor="middle" x="172.033" y="-18.7767" font-family="Times,serif" font-size="14.00" fill="#000000">cuba</text>
</g>
<!-- MEd&#45;&gt;MECu -->
<g id="edge13" class="edge">
<title>MEd&#45;&gt;MECu</title>
<path fill="none" stroke="#0000ff" stroke-dasharray="5,2" d="M163.6958,-121.5713C164.7787,-110.6483 166.0637,-97.6871 167.2965,-85.2523"/>
<polygon fill="#0000ff" stroke="#0000ff" points="170.8105,-85.2837 168.3142,-74.9872 163.8446,-84.5931 170.8105,-85.2837"/>
</g>
<!-- MECh -->
<g id="node13" class="node">
<title>MECh</title>
<ellipse fill="none" stroke="#0000ff" stroke-dasharray="5,2" cx="286.033" cy="-37.4767" rx="48.1667" ry="37.4533"/>
<text text-anchor="middle" x="286.033" y="-48.7767" font-family="Times,serif" font-size="14.00" fill="#000000">maratona</text>
<text text-anchor="middle" x="286.033" y="-33.7767" font-family="Times,serif" font-size="14.00" fill="#000000">editores</text>
<text text-anchor="middle" x="286.033" y="-18.7767" font-family="Times,serif" font-size="14.00" fill="#000000">chile</text>
</g>
<!-- MEd&#45;&gt;MECh -->
<g id="edge14" class="edge">
<title>MEd&#45;&gt;MECh</title>
<path fill="none" stroke="#0000ff" stroke-dasharray="5,2" d="M186.9331,-125.4404C204.1045,-110.1986 226.9669,-89.9053 246.4053,-72.6513"/>
<polygon fill="#0000ff" stroke="#0000ff" points="248.7885,-75.2158 253.9439,-65.9598 244.1416,-69.9806 248.7885,-75.2158"/>
</g>
</g>
</svg>
