G04 #@! TF.FileFunction,Legend,Top*
%FSLAX46Y46*%
G04 Gerber Fmt 4.6, Leading zero omitted, Abs format (unit mm)*
G04 Created by KiCad (PCBNEW 4.0.6) date 05/24/17 16:15:07*
%MOMM*%
%LPD*%
G01*
G04 APERTURE LIST*
%ADD10C,0.100000*%
%ADD11C,0.120000*%
%ADD12C,0.150000*%
G04 APERTURE END LIST*
D10*
D11*
X160020000Y-93954600D02*
X160020000Y-83794600D01*
X158750000Y-93954600D02*
X166370000Y-93954600D01*
X166370000Y-93954600D02*
X166370000Y-83794600D01*
X166370000Y-83794600D02*
X158750000Y-83794600D01*
X158750000Y-83794600D02*
X158750000Y-93954600D01*
X98882200Y-98552000D02*
X98882200Y-108712000D01*
X100152200Y-98552000D02*
X92532200Y-98552000D01*
X92532200Y-98552000D02*
X92532200Y-108712000D01*
X92532200Y-108712000D02*
X100152200Y-108712000D01*
X100152200Y-108712000D02*
X100152200Y-98552000D01*
X161582100Y-115862100D02*
X161582100Y-105702100D01*
X160312100Y-115862100D02*
X167932100Y-115862100D01*
X167932100Y-115862100D02*
X167932100Y-105702100D01*
X167932100Y-105702100D02*
X160312100Y-105702100D01*
X160312100Y-105702100D02*
X160312100Y-115862100D01*
X148348700Y-79705200D02*
X138188700Y-79705200D01*
X148348700Y-80975200D02*
X148348700Y-73355200D01*
X148348700Y-73355200D02*
X138188700Y-73355200D01*
X138188700Y-73355200D02*
X138188700Y-80975200D01*
X138188700Y-80975200D02*
X148348700Y-80975200D01*
X160235900Y-105143300D02*
X160235900Y-94983300D01*
X158965900Y-105143300D02*
X166585900Y-105143300D01*
X166585900Y-105143300D02*
X166585900Y-94983300D01*
X166585900Y-94983300D02*
X158965900Y-94983300D01*
X158965900Y-94983300D02*
X158965900Y-105143300D01*
X104496300Y-93976300D02*
X104496300Y-90656300D01*
X104496300Y-90656300D02*
X95376300Y-90656300D01*
X95376300Y-90656300D02*
X95376300Y-93976300D01*
X95376300Y-93976300D02*
X104496300Y-93976300D01*
X105306300Y-92316300D02*
X104496300Y-92316300D01*
X94566300Y-92316300D02*
X95376300Y-92316300D01*
X107814000Y-89180100D02*
X111134000Y-89180100D01*
X111134000Y-89180100D02*
X111134000Y-80060100D01*
X111134000Y-80060100D02*
X107814000Y-80060100D01*
X107814000Y-80060100D02*
X107814000Y-89180100D01*
X109474000Y-89990100D02*
X109474000Y-89180100D01*
X109474000Y-79250100D02*
X109474000Y-80060100D01*
X125006800Y-96529000D02*
X125006800Y-93209000D01*
X125006800Y-93209000D02*
X115886800Y-93209000D01*
X115886800Y-93209000D02*
X115886800Y-96529000D01*
X115886800Y-96529000D02*
X125006800Y-96529000D01*
X125816800Y-94869000D02*
X125006800Y-94869000D01*
X115076800Y-94869000D02*
X115886800Y-94869000D01*
X117741000Y-98365200D02*
X117741000Y-101685200D01*
X117741000Y-101685200D02*
X126861000Y-101685200D01*
X126861000Y-101685200D02*
X126861000Y-98365200D01*
X126861000Y-98365200D02*
X117741000Y-98365200D01*
X116931000Y-100025200D02*
X117741000Y-100025200D01*
X127671000Y-100025200D02*
X126861000Y-100025200D01*
X119650400Y-112624300D02*
X122970400Y-112624300D01*
X122970400Y-112624300D02*
X122970400Y-103504300D01*
X122970400Y-103504300D02*
X119650400Y-103504300D01*
X119650400Y-103504300D02*
X119650400Y-112624300D01*
X121310400Y-113434300D02*
X121310400Y-112624300D01*
X121310400Y-102694300D02*
X121310400Y-103504300D01*
X128359600Y-119452500D02*
X128359600Y-116132500D01*
X128359600Y-116132500D02*
X119239600Y-116132500D01*
X119239600Y-116132500D02*
X119239600Y-119452500D01*
X119239600Y-119452500D02*
X128359600Y-119452500D01*
X129169600Y-117792500D02*
X128359600Y-117792500D01*
X118429600Y-117792500D02*
X119239600Y-117792500D01*
X141847000Y-123453000D02*
X141847000Y-120133000D01*
X141847000Y-120133000D02*
X132727000Y-120133000D01*
X132727000Y-120133000D02*
X132727000Y-123453000D01*
X132727000Y-123453000D02*
X141847000Y-123453000D01*
X142657000Y-121793000D02*
X141847000Y-121793000D01*
X131917000Y-121793000D02*
X132727000Y-121793000D01*
X147456000Y-102628000D02*
X144136000Y-102628000D01*
X144136000Y-102628000D02*
X144136000Y-111748000D01*
X144136000Y-111748000D02*
X147456000Y-111748000D01*
X147456000Y-111748000D02*
X147456000Y-102628000D01*
X145796000Y-101818000D02*
X145796000Y-102628000D01*
X145796000Y-112558000D02*
X145796000Y-111748000D01*
X156363100Y-118563500D02*
X156363100Y-115243500D01*
X156363100Y-115243500D02*
X147243100Y-115243500D01*
X147243100Y-115243500D02*
X147243100Y-118563500D01*
X147243100Y-118563500D02*
X156363100Y-118563500D01*
X157173100Y-116903500D02*
X156363100Y-116903500D01*
X146433100Y-116903500D02*
X147243100Y-116903500D01*
X138183000Y-89290400D02*
X138183000Y-90660400D01*
X138183000Y-90660400D02*
X148583000Y-90660400D01*
X148583000Y-90660400D02*
X148583000Y-85920400D01*
X148583000Y-85920400D02*
X138183000Y-85920400D01*
X138183000Y-85920400D02*
X138183000Y-87290400D01*
X138183000Y-93490400D02*
X148583000Y-93490400D01*
X148583000Y-93490400D02*
X148583000Y-83090400D01*
X148583000Y-83090400D02*
X138183000Y-83090400D01*
X138183000Y-83090400D02*
X138183000Y-93490400D01*
X138183000Y-87290400D02*
G75*
G02X138183000Y-89290400I0J-1000000D01*
G01*
X101571300Y-89629600D02*
X102941300Y-89629600D01*
X102941300Y-89629600D02*
X102941300Y-79229600D01*
X102941300Y-79229600D02*
X98201300Y-79229600D01*
X98201300Y-79229600D02*
X98201300Y-89629600D01*
X98201300Y-89629600D02*
X99571300Y-89629600D01*
X105771300Y-89629600D02*
X105771300Y-79229600D01*
X105771300Y-79229600D02*
X95371300Y-79229600D01*
X95371300Y-79229600D02*
X95371300Y-89629600D01*
X95371300Y-89629600D02*
X105771300Y-89629600D01*
X99571300Y-89629600D02*
G75*
G02X101571300Y-89629600I1000000J0D01*
G01*
X116796200Y-85531200D02*
X116796200Y-86901200D01*
X116796200Y-86901200D02*
X127196200Y-86901200D01*
X127196200Y-86901200D02*
X127196200Y-82161200D01*
X127196200Y-82161200D02*
X116796200Y-82161200D01*
X116796200Y-82161200D02*
X116796200Y-83531200D01*
X116796200Y-89731200D02*
X127196200Y-89731200D01*
X127196200Y-89731200D02*
X127196200Y-79331200D01*
X127196200Y-79331200D02*
X116796200Y-79331200D01*
X116796200Y-79331200D02*
X116796200Y-89731200D01*
X116796200Y-83531200D02*
G75*
G02X116796200Y-85531200I0J-1000000D01*
G01*
X136033000Y-99308300D02*
X134663000Y-99308300D01*
X134663000Y-99308300D02*
X134663000Y-117328300D01*
X134663000Y-117328300D02*
X139403000Y-117328300D01*
X139403000Y-117328300D02*
X139403000Y-99308300D01*
X139403000Y-99308300D02*
X138033000Y-99308300D01*
X131833000Y-99308300D02*
X131833000Y-117328300D01*
X131833000Y-117328300D02*
X142233000Y-117328300D01*
X142233000Y-117328300D02*
X142233000Y-99308300D01*
X142233000Y-99308300D02*
X131833000Y-99308300D01*
X138033000Y-99308300D02*
G75*
G02X136033000Y-99308300I-1000000J0D01*
G01*
D12*
X167092381Y-89207933D02*
X167806667Y-89207933D01*
X167949524Y-89255553D01*
X168044762Y-89350791D01*
X168092381Y-89493648D01*
X168092381Y-89588886D01*
X168092381Y-88207933D02*
X168092381Y-88779362D01*
X168092381Y-88493648D02*
X167092381Y-88493648D01*
X167235238Y-88588886D01*
X167330476Y-88684124D01*
X167378095Y-88779362D01*
X90714581Y-103965333D02*
X91428867Y-103965333D01*
X91571724Y-104012953D01*
X91666962Y-104108191D01*
X91714581Y-104251048D01*
X91714581Y-104346286D01*
X90809819Y-103536762D02*
X90762200Y-103489143D01*
X90714581Y-103393905D01*
X90714581Y-103155809D01*
X90762200Y-103060571D01*
X90809819Y-103012952D01*
X90905057Y-102965333D01*
X91000295Y-102965333D01*
X91143152Y-103012952D01*
X91714581Y-103584381D01*
X91714581Y-102965333D01*
X168654481Y-111115433D02*
X169368767Y-111115433D01*
X169511624Y-111163053D01*
X169606862Y-111258291D01*
X169654481Y-111401148D01*
X169654481Y-111496386D01*
X168654481Y-110734481D02*
X168654481Y-110115433D01*
X169035433Y-110448767D01*
X169035433Y-110305909D01*
X169083052Y-110210671D01*
X169130671Y-110163052D01*
X169225910Y-110115433D01*
X169464005Y-110115433D01*
X169559243Y-110163052D01*
X169606862Y-110210671D01*
X169654481Y-110305909D01*
X169654481Y-110591624D01*
X169606862Y-110686862D01*
X169559243Y-110734481D01*
X142935367Y-71537581D02*
X142935367Y-72251867D01*
X142887747Y-72394724D01*
X142792509Y-72489962D01*
X142649652Y-72537581D01*
X142554414Y-72537581D01*
X143840129Y-71870914D02*
X143840129Y-72537581D01*
X143602033Y-71489962D02*
X143363938Y-72204248D01*
X143982986Y-72204248D01*
X167308281Y-100396633D02*
X168022567Y-100396633D01*
X168165424Y-100444253D01*
X168260662Y-100539491D01*
X168308281Y-100682348D01*
X168308281Y-100777586D01*
X167308281Y-99444252D02*
X167308281Y-99920443D01*
X167784471Y-99968062D01*
X167736852Y-99920443D01*
X167689233Y-99825205D01*
X167689233Y-99587109D01*
X167736852Y-99491871D01*
X167784471Y-99444252D01*
X167879710Y-99396633D01*
X168117805Y-99396633D01*
X168213043Y-99444252D01*
X168260662Y-99491871D01*
X168308281Y-99587109D01*
X168308281Y-99825205D01*
X168260662Y-99920443D01*
X168213043Y-99968062D01*
X98412491Y-95428681D02*
X98079157Y-94952490D01*
X97841062Y-95428681D02*
X97841062Y-94428681D01*
X98222015Y-94428681D01*
X98317253Y-94476300D01*
X98364872Y-94523919D01*
X98412491Y-94619157D01*
X98412491Y-94762014D01*
X98364872Y-94857252D01*
X98317253Y-94904871D01*
X98222015Y-94952490D01*
X97841062Y-94952490D01*
X99364872Y-95428681D02*
X98793443Y-95428681D01*
X99079157Y-95428681D02*
X99079157Y-94428681D01*
X98983919Y-94571538D01*
X98888681Y-94666776D01*
X98793443Y-94714395D01*
X99983919Y-94428681D02*
X100079158Y-94428681D01*
X100174396Y-94476300D01*
X100222015Y-94523919D01*
X100269634Y-94619157D01*
X100317253Y-94809633D01*
X100317253Y-95047729D01*
X100269634Y-95238205D01*
X100222015Y-95333443D01*
X100174396Y-95381062D01*
X100079158Y-95428681D01*
X99983919Y-95428681D01*
X99888681Y-95381062D01*
X99841062Y-95333443D01*
X99793443Y-95238205D01*
X99745824Y-95047729D01*
X99745824Y-94809633D01*
X99793443Y-94619157D01*
X99841062Y-94523919D01*
X99888681Y-94476300D01*
X99983919Y-94428681D01*
X100745824Y-95428681D02*
X100745824Y-94428681D01*
X100841062Y-95047729D02*
X101126777Y-95428681D01*
X101126777Y-94762014D02*
X100745824Y-95142967D01*
X102079158Y-95428681D02*
X101507729Y-95428681D01*
X101793443Y-95428681D02*
X101793443Y-94428681D01*
X101698205Y-94571538D01*
X101602967Y-94666776D01*
X101507729Y-94714395D01*
X107266381Y-86143909D02*
X106790190Y-86477243D01*
X107266381Y-86715338D02*
X106266381Y-86715338D01*
X106266381Y-86334385D01*
X106314000Y-86239147D01*
X106361619Y-86191528D01*
X106456857Y-86143909D01*
X106599714Y-86143909D01*
X106694952Y-86191528D01*
X106742571Y-86239147D01*
X106790190Y-86334385D01*
X106790190Y-86715338D01*
X107266381Y-85191528D02*
X107266381Y-85762957D01*
X107266381Y-85477243D02*
X106266381Y-85477243D01*
X106409238Y-85572481D01*
X106504476Y-85667719D01*
X106552095Y-85762957D01*
X106266381Y-84572481D02*
X106266381Y-84477242D01*
X106314000Y-84382004D01*
X106361619Y-84334385D01*
X106456857Y-84286766D01*
X106647333Y-84239147D01*
X106885429Y-84239147D01*
X107075905Y-84286766D01*
X107171143Y-84334385D01*
X107218762Y-84382004D01*
X107266381Y-84477242D01*
X107266381Y-84572481D01*
X107218762Y-84667719D01*
X107171143Y-84715338D01*
X107075905Y-84762957D01*
X106885429Y-84810576D01*
X106647333Y-84810576D01*
X106456857Y-84762957D01*
X106361619Y-84715338D01*
X106314000Y-84667719D01*
X106266381Y-84572481D01*
X107266381Y-83810576D02*
X106266381Y-83810576D01*
X106885429Y-83715338D02*
X107266381Y-83429623D01*
X106599714Y-83429623D02*
X106980667Y-83810576D01*
X106361619Y-83048671D02*
X106314000Y-83001052D01*
X106266381Y-82905814D01*
X106266381Y-82667718D01*
X106314000Y-82572480D01*
X106361619Y-82524861D01*
X106456857Y-82477242D01*
X106552095Y-82477242D01*
X106694952Y-82524861D01*
X107266381Y-83096290D01*
X107266381Y-82477242D01*
X118922991Y-97981381D02*
X118589657Y-97505190D01*
X118351562Y-97981381D02*
X118351562Y-96981381D01*
X118732515Y-96981381D01*
X118827753Y-97029000D01*
X118875372Y-97076619D01*
X118922991Y-97171857D01*
X118922991Y-97314714D01*
X118875372Y-97409952D01*
X118827753Y-97457571D01*
X118732515Y-97505190D01*
X118351562Y-97505190D01*
X119875372Y-97981381D02*
X119303943Y-97981381D01*
X119589657Y-97981381D02*
X119589657Y-96981381D01*
X119494419Y-97124238D01*
X119399181Y-97219476D01*
X119303943Y-97267095D01*
X120494419Y-96981381D02*
X120589658Y-96981381D01*
X120684896Y-97029000D01*
X120732515Y-97076619D01*
X120780134Y-97171857D01*
X120827753Y-97362333D01*
X120827753Y-97600429D01*
X120780134Y-97790905D01*
X120732515Y-97886143D01*
X120684896Y-97933762D01*
X120589658Y-97981381D01*
X120494419Y-97981381D01*
X120399181Y-97933762D01*
X120351562Y-97886143D01*
X120303943Y-97790905D01*
X120256324Y-97600429D01*
X120256324Y-97362333D01*
X120303943Y-97171857D01*
X120351562Y-97076619D01*
X120399181Y-97029000D01*
X120494419Y-96981381D01*
X121256324Y-97981381D02*
X121256324Y-96981381D01*
X121351562Y-97600429D02*
X121637277Y-97981381D01*
X121637277Y-97314714D02*
X121256324Y-97695667D01*
X121970610Y-96981381D02*
X122589658Y-96981381D01*
X122256324Y-97362333D01*
X122399182Y-97362333D01*
X122494420Y-97409952D01*
X122542039Y-97457571D01*
X122589658Y-97552810D01*
X122589658Y-97790905D01*
X122542039Y-97886143D01*
X122494420Y-97933762D01*
X122399182Y-97981381D01*
X122113467Y-97981381D01*
X122018229Y-97933762D01*
X121970610Y-97886143D01*
X120777191Y-97817581D02*
X120443857Y-97341390D01*
X120205762Y-97817581D02*
X120205762Y-96817581D01*
X120586715Y-96817581D01*
X120681953Y-96865200D01*
X120729572Y-96912819D01*
X120777191Y-97008057D01*
X120777191Y-97150914D01*
X120729572Y-97246152D01*
X120681953Y-97293771D01*
X120586715Y-97341390D01*
X120205762Y-97341390D01*
X121729572Y-97817581D02*
X121158143Y-97817581D01*
X121443857Y-97817581D02*
X121443857Y-96817581D01*
X121348619Y-96960438D01*
X121253381Y-97055676D01*
X121158143Y-97103295D01*
X122348619Y-96817581D02*
X122443858Y-96817581D01*
X122539096Y-96865200D01*
X122586715Y-96912819D01*
X122634334Y-97008057D01*
X122681953Y-97198533D01*
X122681953Y-97436629D01*
X122634334Y-97627105D01*
X122586715Y-97722343D01*
X122539096Y-97769962D01*
X122443858Y-97817581D01*
X122348619Y-97817581D01*
X122253381Y-97769962D01*
X122205762Y-97722343D01*
X122158143Y-97627105D01*
X122110524Y-97436629D01*
X122110524Y-97198533D01*
X122158143Y-97008057D01*
X122205762Y-96912819D01*
X122253381Y-96865200D01*
X122348619Y-96817581D01*
X123110524Y-97817581D02*
X123110524Y-96817581D01*
X123205762Y-97436629D02*
X123491477Y-97817581D01*
X123491477Y-97150914D02*
X123110524Y-97531867D01*
X124348620Y-97150914D02*
X124348620Y-97817581D01*
X124110524Y-96769962D02*
X123872429Y-97484248D01*
X124491477Y-97484248D01*
X119102781Y-109588109D02*
X118626590Y-109921443D01*
X119102781Y-110159538D02*
X118102781Y-110159538D01*
X118102781Y-109778585D01*
X118150400Y-109683347D01*
X118198019Y-109635728D01*
X118293257Y-109588109D01*
X118436114Y-109588109D01*
X118531352Y-109635728D01*
X118578971Y-109683347D01*
X118626590Y-109778585D01*
X118626590Y-110159538D01*
X119102781Y-108635728D02*
X119102781Y-109207157D01*
X119102781Y-108921443D02*
X118102781Y-108921443D01*
X118245638Y-109016681D01*
X118340876Y-109111919D01*
X118388495Y-109207157D01*
X118102781Y-108016681D02*
X118102781Y-107921442D01*
X118150400Y-107826204D01*
X118198019Y-107778585D01*
X118293257Y-107730966D01*
X118483733Y-107683347D01*
X118721829Y-107683347D01*
X118912305Y-107730966D01*
X119007543Y-107778585D01*
X119055162Y-107826204D01*
X119102781Y-107921442D01*
X119102781Y-108016681D01*
X119055162Y-108111919D01*
X119007543Y-108159538D01*
X118912305Y-108207157D01*
X118721829Y-108254776D01*
X118483733Y-108254776D01*
X118293257Y-108207157D01*
X118198019Y-108159538D01*
X118150400Y-108111919D01*
X118102781Y-108016681D01*
X119102781Y-107254776D02*
X118102781Y-107254776D01*
X118721829Y-107159538D02*
X119102781Y-106873823D01*
X118436114Y-106873823D02*
X118817067Y-107254776D01*
X118102781Y-105969061D02*
X118102781Y-106445252D01*
X118578971Y-106492871D01*
X118531352Y-106445252D01*
X118483733Y-106350014D01*
X118483733Y-106111918D01*
X118531352Y-106016680D01*
X118578971Y-105969061D01*
X118674210Y-105921442D01*
X118912305Y-105921442D01*
X119007543Y-105969061D01*
X119055162Y-106016680D01*
X119102781Y-106111918D01*
X119102781Y-106350014D01*
X119055162Y-106445252D01*
X119007543Y-106492871D01*
X122275791Y-120904881D02*
X121942457Y-120428690D01*
X121704362Y-120904881D02*
X121704362Y-119904881D01*
X122085315Y-119904881D01*
X122180553Y-119952500D01*
X122228172Y-120000119D01*
X122275791Y-120095357D01*
X122275791Y-120238214D01*
X122228172Y-120333452D01*
X122180553Y-120381071D01*
X122085315Y-120428690D01*
X121704362Y-120428690D01*
X123228172Y-120904881D02*
X122656743Y-120904881D01*
X122942457Y-120904881D02*
X122942457Y-119904881D01*
X122847219Y-120047738D01*
X122751981Y-120142976D01*
X122656743Y-120190595D01*
X123847219Y-119904881D02*
X123942458Y-119904881D01*
X124037696Y-119952500D01*
X124085315Y-120000119D01*
X124132934Y-120095357D01*
X124180553Y-120285833D01*
X124180553Y-120523929D01*
X124132934Y-120714405D01*
X124085315Y-120809643D01*
X124037696Y-120857262D01*
X123942458Y-120904881D01*
X123847219Y-120904881D01*
X123751981Y-120857262D01*
X123704362Y-120809643D01*
X123656743Y-120714405D01*
X123609124Y-120523929D01*
X123609124Y-120285833D01*
X123656743Y-120095357D01*
X123704362Y-120000119D01*
X123751981Y-119952500D01*
X123847219Y-119904881D01*
X124609124Y-120904881D02*
X124609124Y-119904881D01*
X124704362Y-120523929D02*
X124990077Y-120904881D01*
X124990077Y-120238214D02*
X124609124Y-120619167D01*
X125847220Y-119904881D02*
X125656743Y-119904881D01*
X125561505Y-119952500D01*
X125513886Y-120000119D01*
X125418648Y-120142976D01*
X125371029Y-120333452D01*
X125371029Y-120714405D01*
X125418648Y-120809643D01*
X125466267Y-120857262D01*
X125561505Y-120904881D01*
X125751982Y-120904881D01*
X125847220Y-120857262D01*
X125894839Y-120809643D01*
X125942458Y-120714405D01*
X125942458Y-120476310D01*
X125894839Y-120381071D01*
X125847220Y-120333452D01*
X125751982Y-120285833D01*
X125561505Y-120285833D01*
X125466267Y-120333452D01*
X125418648Y-120381071D01*
X125371029Y-120476310D01*
X135763191Y-124905381D02*
X135429857Y-124429190D01*
X135191762Y-124905381D02*
X135191762Y-123905381D01*
X135572715Y-123905381D01*
X135667953Y-123953000D01*
X135715572Y-124000619D01*
X135763191Y-124095857D01*
X135763191Y-124238714D01*
X135715572Y-124333952D01*
X135667953Y-124381571D01*
X135572715Y-124429190D01*
X135191762Y-124429190D01*
X136715572Y-124905381D02*
X136144143Y-124905381D01*
X136429857Y-124905381D02*
X136429857Y-123905381D01*
X136334619Y-124048238D01*
X136239381Y-124143476D01*
X136144143Y-124191095D01*
X137334619Y-123905381D02*
X137429858Y-123905381D01*
X137525096Y-123953000D01*
X137572715Y-124000619D01*
X137620334Y-124095857D01*
X137667953Y-124286333D01*
X137667953Y-124524429D01*
X137620334Y-124714905D01*
X137572715Y-124810143D01*
X137525096Y-124857762D01*
X137429858Y-124905381D01*
X137334619Y-124905381D01*
X137239381Y-124857762D01*
X137191762Y-124810143D01*
X137144143Y-124714905D01*
X137096524Y-124524429D01*
X137096524Y-124286333D01*
X137144143Y-124095857D01*
X137191762Y-124000619D01*
X137239381Y-123953000D01*
X137334619Y-123905381D01*
X138096524Y-124905381D02*
X138096524Y-123905381D01*
X138191762Y-124524429D02*
X138477477Y-124905381D01*
X138477477Y-124238714D02*
X138096524Y-124619667D01*
X138810810Y-123905381D02*
X139477477Y-123905381D01*
X139048905Y-124905381D01*
X148908381Y-108711809D02*
X148432190Y-109045143D01*
X148908381Y-109283238D02*
X147908381Y-109283238D01*
X147908381Y-108902285D01*
X147956000Y-108807047D01*
X148003619Y-108759428D01*
X148098857Y-108711809D01*
X148241714Y-108711809D01*
X148336952Y-108759428D01*
X148384571Y-108807047D01*
X148432190Y-108902285D01*
X148432190Y-109283238D01*
X148908381Y-107759428D02*
X148908381Y-108330857D01*
X148908381Y-108045143D02*
X147908381Y-108045143D01*
X148051238Y-108140381D01*
X148146476Y-108235619D01*
X148194095Y-108330857D01*
X147908381Y-107140381D02*
X147908381Y-107045142D01*
X147956000Y-106949904D01*
X148003619Y-106902285D01*
X148098857Y-106854666D01*
X148289333Y-106807047D01*
X148527429Y-106807047D01*
X148717905Y-106854666D01*
X148813143Y-106902285D01*
X148860762Y-106949904D01*
X148908381Y-107045142D01*
X148908381Y-107140381D01*
X148860762Y-107235619D01*
X148813143Y-107283238D01*
X148717905Y-107330857D01*
X148527429Y-107378476D01*
X148289333Y-107378476D01*
X148098857Y-107330857D01*
X148003619Y-107283238D01*
X147956000Y-107235619D01*
X147908381Y-107140381D01*
X148908381Y-106378476D02*
X147908381Y-106378476D01*
X148527429Y-106283238D02*
X148908381Y-105997523D01*
X148241714Y-105997523D02*
X148622667Y-106378476D01*
X148336952Y-105426095D02*
X148289333Y-105521333D01*
X148241714Y-105568952D01*
X148146476Y-105616571D01*
X148098857Y-105616571D01*
X148003619Y-105568952D01*
X147956000Y-105521333D01*
X147908381Y-105426095D01*
X147908381Y-105235618D01*
X147956000Y-105140380D01*
X148003619Y-105092761D01*
X148098857Y-105045142D01*
X148146476Y-105045142D01*
X148241714Y-105092761D01*
X148289333Y-105140380D01*
X148336952Y-105235618D01*
X148336952Y-105426095D01*
X148384571Y-105521333D01*
X148432190Y-105568952D01*
X148527429Y-105616571D01*
X148717905Y-105616571D01*
X148813143Y-105568952D01*
X148860762Y-105521333D01*
X148908381Y-105426095D01*
X148908381Y-105235618D01*
X148860762Y-105140380D01*
X148813143Y-105092761D01*
X148717905Y-105045142D01*
X148527429Y-105045142D01*
X148432190Y-105092761D01*
X148384571Y-105140380D01*
X148336952Y-105235618D01*
X150279291Y-120015881D02*
X149945957Y-119539690D01*
X149707862Y-120015881D02*
X149707862Y-119015881D01*
X150088815Y-119015881D01*
X150184053Y-119063500D01*
X150231672Y-119111119D01*
X150279291Y-119206357D01*
X150279291Y-119349214D01*
X150231672Y-119444452D01*
X150184053Y-119492071D01*
X150088815Y-119539690D01*
X149707862Y-119539690D01*
X151231672Y-120015881D02*
X150660243Y-120015881D01*
X150945957Y-120015881D02*
X150945957Y-119015881D01*
X150850719Y-119158738D01*
X150755481Y-119253976D01*
X150660243Y-119301595D01*
X151850719Y-119015881D02*
X151945958Y-119015881D01*
X152041196Y-119063500D01*
X152088815Y-119111119D01*
X152136434Y-119206357D01*
X152184053Y-119396833D01*
X152184053Y-119634929D01*
X152136434Y-119825405D01*
X152088815Y-119920643D01*
X152041196Y-119968262D01*
X151945958Y-120015881D01*
X151850719Y-120015881D01*
X151755481Y-119968262D01*
X151707862Y-119920643D01*
X151660243Y-119825405D01*
X151612624Y-119634929D01*
X151612624Y-119396833D01*
X151660243Y-119206357D01*
X151707862Y-119111119D01*
X151755481Y-119063500D01*
X151850719Y-119015881D01*
X152612624Y-120015881D02*
X152612624Y-119015881D01*
X152707862Y-119634929D02*
X152993577Y-120015881D01*
X152993577Y-119349214D02*
X152612624Y-119730167D01*
X153469767Y-120015881D02*
X153660243Y-120015881D01*
X153755482Y-119968262D01*
X153803101Y-119920643D01*
X153898339Y-119777786D01*
X153945958Y-119587310D01*
X153945958Y-119206357D01*
X153898339Y-119111119D01*
X153850720Y-119063500D01*
X153755482Y-119015881D01*
X153565005Y-119015881D01*
X153469767Y-119063500D01*
X153422148Y-119111119D01*
X153374529Y-119206357D01*
X153374529Y-119444452D01*
X153422148Y-119539690D01*
X153469767Y-119587310D01*
X153565005Y-119634929D01*
X153755482Y-119634929D01*
X153850720Y-119587310D01*
X153898339Y-119539690D01*
X153945958Y-119444452D01*
X136635381Y-89052305D02*
X137444905Y-89052305D01*
X137540143Y-89004686D01*
X137587762Y-88957067D01*
X137635381Y-88861829D01*
X137635381Y-88671352D01*
X137587762Y-88576114D01*
X137540143Y-88528495D01*
X137444905Y-88480876D01*
X136635381Y-88480876D01*
X137635381Y-87480876D02*
X137635381Y-88052305D01*
X137635381Y-87766591D02*
X136635381Y-87766591D01*
X136778238Y-87861829D01*
X136873476Y-87957067D01*
X136921095Y-88052305D01*
X99809395Y-90081981D02*
X99809395Y-90891505D01*
X99857014Y-90986743D01*
X99904633Y-91034362D01*
X99999871Y-91081981D01*
X100190348Y-91081981D01*
X100285586Y-91034362D01*
X100333205Y-90986743D01*
X100380824Y-90891505D01*
X100380824Y-90081981D01*
X100809395Y-90177219D02*
X100857014Y-90129600D01*
X100952252Y-90081981D01*
X101190348Y-90081981D01*
X101285586Y-90129600D01*
X101333205Y-90177219D01*
X101380824Y-90272457D01*
X101380824Y-90367695D01*
X101333205Y-90510552D01*
X100761776Y-91081981D01*
X101380824Y-91081981D01*
X115248581Y-85293105D02*
X116058105Y-85293105D01*
X116153343Y-85245486D01*
X116200962Y-85197867D01*
X116248581Y-85102629D01*
X116248581Y-84912152D01*
X116200962Y-84816914D01*
X116153343Y-84769295D01*
X116058105Y-84721676D01*
X115248581Y-84721676D01*
X115248581Y-84340724D02*
X115248581Y-83721676D01*
X115629533Y-84055010D01*
X115629533Y-83912152D01*
X115677152Y-83816914D01*
X115724771Y-83769295D01*
X115820010Y-83721676D01*
X116058105Y-83721676D01*
X116153343Y-83769295D01*
X116200962Y-83816914D01*
X116248581Y-83912152D01*
X116248581Y-84197867D01*
X116200962Y-84293105D01*
X116153343Y-84340724D01*
X136271095Y-97760681D02*
X136271095Y-98570205D01*
X136318714Y-98665443D01*
X136366333Y-98713062D01*
X136461571Y-98760681D01*
X136652048Y-98760681D01*
X136747286Y-98713062D01*
X136794905Y-98665443D01*
X136842524Y-98570205D01*
X136842524Y-97760681D01*
X137747286Y-98094014D02*
X137747286Y-98760681D01*
X137509190Y-97713062D02*
X137271095Y-98427348D01*
X137890143Y-98427348D01*
M02*
