G04 #@! TF.FileFunction,Copper,L1,Top,Signal*
%FSLAX46Y46*%
G04 Gerber Fmt 4.6, Leading zero omitted, Abs format (unit mm)*
G04 Created by KiCad (PCBNEW 4.0.6) date 05/24/17 16:15:07*
%MOMM*%
%LPD*%
G01*
G04 APERTURE LIST*
%ADD10C,0.100000*%
%ADD11R,3.000000X3.000000*%
%ADD12C,3.000000*%
%ADD13C,1.600000*%
%ADD14O,1.600000X1.600000*%
%ADD15R,1.600000X2.400000*%
%ADD16O,1.600000X2.400000*%
%ADD17R,2.400000X1.600000*%
%ADD18O,2.400000X1.600000*%
G04 APERTURE END LIST*
D10*
D11*
X162560000Y-86334600D03*
D12*
X162560000Y-91414600D03*
D11*
X96342200Y-106172000D03*
D12*
X96342200Y-101092000D03*
D11*
X164122100Y-108242100D03*
D12*
X164122100Y-113322100D03*
D11*
X140728700Y-77165200D03*
D12*
X145808700Y-77165200D03*
D11*
X162775900Y-97523300D03*
D12*
X162775900Y-102603300D03*
D13*
X106286300Y-92316300D03*
D14*
X93586300Y-92316300D03*
D13*
X109474000Y-90970100D03*
D14*
X109474000Y-78270100D03*
D13*
X126796800Y-94869000D03*
D14*
X114096800Y-94869000D03*
D13*
X115951000Y-100025200D03*
D14*
X128651000Y-100025200D03*
D13*
X121310400Y-114414300D03*
D14*
X121310400Y-101714300D03*
D13*
X130149600Y-117792500D03*
D14*
X117449600Y-117792500D03*
D13*
X143637000Y-121793000D03*
D14*
X130937000Y-121793000D03*
D13*
X145796000Y-100838000D03*
D14*
X145796000Y-113538000D03*
D13*
X158153100Y-116903500D03*
D14*
X145453100Y-116903500D03*
D15*
X139573000Y-92100400D03*
D16*
X147193000Y-84480400D03*
X142113000Y-92100400D03*
X144653000Y-84480400D03*
X144653000Y-92100400D03*
X142113000Y-84480400D03*
X147193000Y-92100400D03*
X139573000Y-84480400D03*
D17*
X104381300Y-88239600D03*
D18*
X96761300Y-80619600D03*
X104381300Y-85699600D03*
X96761300Y-83159600D03*
X104381300Y-83159600D03*
X96761300Y-85699600D03*
X104381300Y-80619600D03*
X96761300Y-88239600D03*
D15*
X118186200Y-88341200D03*
D16*
X125806200Y-80721200D03*
X120726200Y-88341200D03*
X123266200Y-80721200D03*
X123266200Y-88341200D03*
X120726200Y-80721200D03*
X125806200Y-88341200D03*
X118186200Y-80721200D03*
D17*
X133223000Y-100698300D03*
D18*
X140843000Y-115938300D03*
X133223000Y-103238300D03*
X140843000Y-113398300D03*
X133223000Y-105778300D03*
X140843000Y-110858300D03*
X133223000Y-108318300D03*
X140843000Y-108318300D03*
X133223000Y-110858300D03*
X140843000Y-105778300D03*
X133223000Y-113398300D03*
X140843000Y-103238300D03*
X133223000Y-115938300D03*
X140843000Y-100698300D03*
M02*
